<svg width="101" height="101" viewBox="0 0 101 101" fill="none" xmlns="http://www.w3.org/2000/svg">
<circle cx="50.5" cy="50.5" r="50.5" fill="black"/>
<path d="M53.5625 27.8139C53.5625 24.8405 57.1785 23.3751 59.2486 25.5096L78.3227 45.1773C79.5789 46.4726 80.2815 48.2061 80.2815 50.0105V72.7758C80.2815 75.7492 76.6654 77.2146 74.5954 75.0802L55.5212 55.4124C54.265 54.1171 53.5625 52.3836 53.5625 50.5792V27.8139Z" fill="#00A9A5"/>
<path d="M37.0039 27.1675C37.0039 24.194 40.62 22.7286 42.69 24.8631L61.4827 44.2406C62.9194 45.722 63.7229 47.7046 63.7229 49.7683V72.1293C63.7229 75.1027 60.1068 76.5682 58.0368 74.4337L38.9626 54.7659C37.7064 53.4706 37.0039 51.7371 37.0039 49.9327V27.1675Z" fill="#0B5351"/>
<path d="M21 27.8139C21 24.8405 24.616 23.3751 26.6861 25.5096L45.7602 45.1773C47.0164 46.4726 47.719 48.2061 47.719 50.0105V72.7758C47.719 75.7492 44.1029 77.2146 42.0329 75.0802L22.9587 55.4124C21.7025 54.1171 21 52.3836 21 50.5792V27.8139Z" fill="#092327"/>
</svg>
